General
Unique ID                                : 43640078426229125056708627170392730826 (0x20D4C5FC56F66028A021E18D1872ECCA)
Complete name                            : Tommy.Boy.1995.UHD.BluRay.2160p.TrueHD.5.1.DV.HEVC.REMUX-FraMeSToR.mkv
Format                                   : Matroska
Format version                           : Version 4
File size                                : 56.4 GiB
Duration                                 : 1 h 37 min
Overall bit rate mode                    : Variable
Overall bit rate                         : 83.2 Mb/s
Frame rate                               : 23.976 FPS
Movie name                               : Tommy Boy (1995)
Encoded date                             : 2025-03-27 05:32:35 UTC
Writing application                      : mkvmerge v91.0 ('Signs') 64-bit
Writing library                          : libebml v1.4.5 + libmatroska v1.7.1
IMDB                                     : tt0114694
TMDB                                     : movie/11381

Video
ID                                       : 1
Format                                   : HEVC
Format/Info                              : High Efficiency Video Coding
Format profile                           : Main 10@L5.1@High
HDR format                               : Dolby Vision, Version 1.0, Profile 7.6, dvhe.07.06, BL+EL+RPU, no metadata compression, Blu-ray compatible / SMPTE ST 2086, Version HDR10, HDR10 compatible
Codec ID                                 : V_MPEGH/ISO/HEVC
Duration                                 : 1 h 37 min
Bit rate                                 : 78.1 Mb/s
Width                                    : 3 840 pixels
Height                                   : 2 160 pixels
Display aspect ratio                     : 16:9
Frame rate mode                          : Constant
Frame rate                               : 23.976 (24000/1001) FPS
Color space                              : YUV
Chroma subsampling                       : 4:2:0 (Type 2)
Bit depth                                : 10 bits
Bits/(Pixel*Frame)                       : 0.393
Stream size                              : 52.9 GiB (94%)
Default                                  : Yes
Forced                                   : No
Color range                              : Limited
Color primaries                          : BT.2020
Transfer characteristics                 : PQ
Matrix coefficients                      : BT.2020 non-constant
Mastering display color primaries        : Display P3
Mastering display luminance              : min: 0.0001 cd/m2, max: 1000 cd/m2
Maximum Content Light Level              : 297 cd/m2
Maximum Frame-Average Light Level        : 138 cd/m2

Audio #1
ID                                       : 2
Format                                   : MLP FBA
Format/Info                              : Meridian Lossless Packing FBA
Commercial name                          : Dolby TrueHD
Codec ID                                 : A_TRUEHD
Duration                                 : 1 h 37 min
Bit rate mode                            : Variable
Bit rate                                 : 3 628 kb/s
Maximum bit rate                         : 4 608 kb/s
Channel(s)                               : 6 channels
Channel layout                           : L R C LFE Ls Rs
Sampling rate                            : 48.0 kHz
Frame rate                               : 1 200.000 FPS (40 SPF)
Compression mode                         : Lossless
Stream size                              : 2.46 GiB (4%)
Title                                    : TrueHD 5.1
Language                                 : English
Default                                  : Yes
Forced                                   : No

Audio #2
ID                                       : 3
Format                                   : AC-3
Format/Info                              : Audio Coding 3
Commercial name                          : Dolby Digital
Codec ID                                 : A_AC3
Duration                                 : 1 h 37 min
Bit rate mode                            : Constant
Bit rate                                 : 640 kb/s
Channel(s)                               : 6 channels
Channel layout                           : L R C LFE Ls Rs
Sampling rate                            : 48.0 kHz
Frame rate                               : 31.250 FPS (1536 SPF)
Compression mode                         : Lossy
Stream size                              : 444 MiB (1%)
Title                                    : AC-3 5.1
Language                                 : English
Service kind                             : Complete Main
Default                                  : No
Forced                                   : No
Dialog Normalization                     : -31 dB
compr                                    : -0.28 dB
cmixlev                                  : -3.0 dB
surmixlev                                : -3 dB
dmixmod                                  : Lo/Ro
ltrtcmixlev                              : -3.0 dB
ltrtsurmixlev                            : -3.0 dB
lorocmixlev                              : -3.0 dB
lorosurmixlev                            : -3.0 dB
dialnorm_Average                         : -31 dB
dialnorm_Minimum                         : -31 dB
dialnorm_Maximum                         : -31 dB

Audio #3
ID                                       : 4
Format                                   : AC-3
Format/Info                              : Audio Coding 3
Commercial name                          : Dolby Digital
Format settings                          : Dolby Surround
Codec ID                                 : A_AC3
Duration                                 : 1 h 37 min
Bit rate mode                            : Constant
Bit rate                                 : 224 kb/s
Channel(s)                               : 2 channels
Channel layout                           : L R
Sampling rate                            : 48.0 kHz
Frame rate                               : 31.250 FPS (1536 SPF)
Compression mode                         : Lossy
Delay relative to video                  : 28 ms
Stream size                              : 155 MiB (0%)
Title                                    : Commentary By Director Peter Segal
Language                                 : English
Service kind                             : Complete Main
Default                                  : No
Forced                                   : No
Dialog Normalization                     : -31 dB
compr                                    : 2.77 dB
dynrng                                   : 1.94 dB
dsurmod                                  : Dolby Surround encoded
mixlevel                                 : 105 dB
roomtyp                                  : Large
ltrtcmixlev                              : -3.0 dB
ltrtsurmixlev                            : -3.0 dB
lorocmixlev                              : -3.0 dB
lorosurmixlev                            : -3.0 dB
dialnorm_Average                         : -31 dB
dialnorm_Minimum                         : -31 dB
dialnorm_Maximum                         : -31 dB

Text #1
ID                                       : 5
Format                                   : PGS
Codec ID                                 : S_HDMV/PGS
Codec ID/Info                            : Picture based subtitle format used on BDs/HD-DVDs
Duration                                 : 1 h 32 min
Bit rate                                 : 48.1 kb/s
Frame rate                               : 0.505 FPS
Count of elements                        : 2794
Stream size                              : 31.7 MiB (0%)
Title                                    : English
Language                                 : English
Default                                  : No
Forced                                   : No

Text #2
ID                                       : 6
Format                                   : PGS
Codec ID                                 : S_HDMV/PGS
Codec ID/Info                            : Picture based subtitle format used on BDs/HD-DVDs
Duration                                 : 1 h 36 min
Bit rate                                 : 57.1 kb/s
Frame rate                               : 0.715 FPS
Count of elements                        : 4154
Stream size                              : 39.5 MiB (0%)
Title                                    : English (SDH)
Language                                 : English
Default                                  : No
Forced                                   : No

Text #3
ID                                       : 7
Format                                   : UTF-8
Codec ID                                 : S_TEXT/UTF8
Codec ID/Info                            : UTF-8 Plain Text
Duration                                 : 1 h 32 min
Bit rate                                 : 140 b/s
Frame rate                               : 0.257 FPS
Count of elements                        : 1426
Stream size                              : 94.9 KiB (0%)
Title                                    : Arabic
Language                                 : Arabic
Default                                  : No
Forced                                   : No

Text #4
ID                                       : 8
Format                                   : UTF-8
Codec ID                                 : S_TEXT/UTF8
Codec ID/Info                            : UTF-8 Plain Text
Duration                                 : 1 h 32 min
Bit rate                                 : 129 b/s
Frame rate                               : 0.257 FPS
Count of elements                        : 1426
Stream size                              : 87.7 KiB (0%)
Title                                    : Bulgarian
Language                                 : Bulgarian
Default                                  : No
Forced                                   : No

Text #5
ID                                       : 9
Format                                   : UTF-8
Codec ID                                 : S_TEXT/UTF8
Codec ID/Info                            : UTF-8 Plain Text
Duration                                 : 1 h 32 min
Bit rate                                 : 74 b/s
Frame rate                               : 0.253 FPS
Count of elements                        : 1402
Stream size                              : 50.2 KiB (0%)
Title                                    : Chinese (Cantonese)
Language                                 : Cantonese
Default                                  : No
Forced                                   : No

Text #6
ID                                       : 10
Format                                   : UTF-8
Codec ID                                 : S_TEXT/UTF8
Codec ID/Info                            : UTF-8 Plain Text
Duration                                 : 1 h 32 min
Bit rate                                 : 71 b/s
Frame rate                               : 0.261 FPS
Count of elements                        : 1444
Stream size                              : 48.1 KiB (0%)
Title                                    : Chinese (Simplified)
Language                                 : Chinese (Simplified)
Default                                  : No
Forced                                   : No

Text #7
ID                                       : 11
Format                                   : UTF-8
Codec ID                                 : S_TEXT/UTF8
Codec ID/Info                            : UTF-8 Plain Text
Duration                                 : 1 h 32 min
Bit rate                                 : 72 b/s
Frame rate                               : 0.258 FPS
Count of elements                        : 1429
Stream size                              : 48.7 KiB (0%)
Title                                    : Chinese (Traditional)
Language                                 : Chinese (Traditional)
Default                                  : No
Forced                                   : No

Text #8
ID                                       : 12
Format                                   : UTF-8
Codec ID                                 : S_TEXT/UTF8
Codec ID/Info                            : UTF-8 Plain Text
Duration                                 : 1 h 32 min
Bit rate                                 : 76 b/s
Frame rate                               : 0.257 FPS
Count of elements                        : 1422
Stream size                              : 51.5 KiB (0%)
Title                                    : Czech
Language                                 : Czech
Default                                  : No
Forced                                   : No

Text #9
ID                                       : 13
Format                                   : PGS
Codec ID                                 : S_HDMV/PGS
Codec ID/Info                            : Picture based subtitle format used on BDs/HD-DVDs
Duration                                 : 1 h 32 min
Bit rate                                 : 40.9 kb/s
Frame rate                               : 0.511 FPS
Count of elements                        : 2832
Stream size                              : 27.0 MiB (0%)
Title                                    : Danish
Language                                 : Danish
Default                                  : No
Forced                                   : No

Text #10
ID                                       : 14
Format                                   : PGS
Codec ID                                 : S_HDMV/PGS
Codec ID/Info                            : Picture based subtitle format used on BDs/HD-DVDs
Duration                                 : 1 h 32 min
Bit rate                                 : 39.1 kb/s
Frame rate                               : 0.513 FPS
Count of elements                        : 2844
Stream size                              : 25.8 MiB (0%)
Title                                    : Dutch
Language                                 : Dutch
Default                                  : No
Forced                                   : No

Text #11
ID                                       : 15
Format                                   : PGS
Codec ID                                 : S_HDMV/PGS
Codec ID/Info                            : Picture based subtitle format used on BDs/HD-DVDs
Duration                                 : 1 h 32 min
Bit rate                                 : 49.6 kb/s
Frame rate                               : 0.514 FPS
Count of elements                        : 2848
Stream size                              : 32.7 MiB (0%)
Title                                    : Finnish
Language                                 : Finnish
Default                                  : No
Forced                                   : No

Text #12
ID                                       : 16
Format                                   : PGS
Codec ID                                 : S_HDMV/PGS
Codec ID/Info                            : Picture based subtitle format used on BDs/HD-DVDs
Duration                                 : 1 h 32 min
Bit rate                                 : 48.7 kb/s
Frame rate                               : 0.513 FPS
Count of elements                        : 2844
Stream size                              : 32.1 MiB (0%)
Title                                    : French (Canadian)
Language                                 : French (CA)
Default                                  : No
Forced                                   : No

Text #13
ID                                       : 17
Format                                   : PGS
Codec ID                                 : S_HDMV/PGS
Codec ID/Info                            : Picture based subtitle format used on BDs/HD-DVDs
Duration                                 : 1 h 32 min
Bit rate                                 : 42.8 kb/s
Frame rate                               : 0.514 FPS
Count of elements                        : 2846
Stream size                              : 28.3 MiB (0%)
Title                                    : French (Parisian)
Language                                 : French (FR)
Default                                  : No
Forced                                   : No

Text #14
ID                                       : 18
Format                                   : PGS
Codec ID                                 : S_HDMV/PGS
Codec ID/Info                            : Picture based subtitle format used on BDs/HD-DVDs
Duration                                 : 1 h 32 min
Bit rate                                 : 45.4 kb/s
Frame rate                               : 0.514 FPS
Count of elements                        : 2846
Stream size                              : 30.0 MiB (0%)
Title                                    : German
Language                                 : German
Default                                  : No
Forced                                   : No

Text #15
ID                                       : 19
Format                                   : UTF-8
Codec ID                                 : S_TEXT/UTF8
Codec ID/Info                            : UTF-8 Plain Text
Duration                                 : 1 h 32 min
Bit rate                                 : 125 b/s
Frame rate                               : 0.257 FPS
Count of elements                        : 1426
Stream size                              : 85.2 KiB (0%)
Title                                    : Hebrew
Language                                 : Hebrew
Default                                  : No
Forced                                   : No

Text #16
ID                                       : 20
Format                                   : UTF-8
Codec ID                                 : S_TEXT/UTF8
Codec ID/Info                            : UTF-8 Plain Text
Duration                                 : 1 h 32 min
Bit rate                                 : 73 b/s
Frame rate                               : 0.256 FPS
Count of elements                        : 1420
Stream size                              : 50.0 KiB (0%)
Title                                    : Italian
Language                                 : Italian
Default                                  : No
Forced                                   : No

Text #17
ID                                       : 21
Format                                   : UTF-8
Codec ID                                 : S_TEXT/UTF8
Codec ID/Info                            : UTF-8 Plain Text
Duration                                 : 1 h 32 min
Bit rate                                 : 84 b/s
Frame rate                               : 0.265 FPS
Count of elements                        : 1466
Stream size                              : 57.4 KiB (0%)
Title                                    : Korean
Language                                 : Korean
Default                                  : No
Forced                                   : No

Text #18
ID                                       : 22
Format                                   : PGS
Codec ID                                 : S_HDMV/PGS
Codec ID/Info                            : Picture based subtitle format used on BDs/HD-DVDs
Duration                                 : 1 h 32 min
Bit rate                                 : 42.6 kb/s
Frame rate                               : 0.514 FPS
Count of elements                        : 2846
Stream size                              : 28.1 MiB (0%)
Title                                    : Norwegian
Language                                 : Norwegian
Default                                  : No
Forced                                   : No

Text #19
ID                                       : 23
Format                                   : UTF-8
Codec ID                                 : S_TEXT/UTF8
Codec ID/Info                            : UTF-8 Plain Text
Duration                                 : 1 h 32 min
Bit rate                                 : 74 b/s
Frame rate                               : 0.257 FPS
Count of elements                        : 1423
Stream size                              : 50.5 KiB (0%)
Title                                    : Polish
Language                                 : Polish
Default                                  : No
Forced                                   : No

Text #20
ID                                       : 24
Format                                   : PGS
Codec ID                                 : S_HDMV/PGS
Codec ID/Info                            : Picture based subtitle format used on BDs/HD-DVDs
Duration                                 : 1 h 32 min
Bit rate                                 : 47.7 kb/s
Frame rate                               : 0.514 FPS
Count of elements                        : 2846
Stream size                              : 31.5 MiB (0%)
Title                                    : Portuguese (Brazilian)
Language                                 : Portuguese (BR)
Default                                  : No
Forced                                   : No

Text #21
ID                                       : 25
Format                                   : UTF-8
Codec ID                                 : S_TEXT/UTF8
Codec ID/Info                            : UTF-8 Plain Text
Duration                                 : 1 h 32 min
Bit rate                                 : 81 b/s
Frame rate                               : 0.257 FPS
Count of elements                        : 1422
Stream size                              : 55.2 KiB (0%)
Title                                    : Portuguese (Iberian)
Language                                 : Portuguese (PT)
Default                                  : No
Forced                                   : No

Text #22
ID                                       : 26
Format                                   : UTF-8
Codec ID                                 : S_TEXT/UTF8
Codec ID/Info                            : UTF-8 Plain Text
Duration                                 : 1 h 32 min
Bit rate                                 : 130 b/s
Frame rate                               : 0.260 FPS
Count of elements                        : 1442
Stream size                              : 88.1 KiB (0%)
Title                                    : Russian
Language                                 : Russian
Default                                  : No
Forced                                   : No

Text #23
ID                                       : 27
Format                                   : PGS
Codec ID                                 : S_HDMV/PGS
Codec ID/Info                            : Picture based subtitle format used on BDs/HD-DVDs
Duration                                 : 1 h 32 min
Bit rate                                 : 41.0 kb/s
Frame rate                               : 0.425 FPS
Count of elements                        : 2350
Stream size                              : 27.1 MiB (0%)
Title                                    : Spanish (Castilian)
Language                                 : Spanish (ES)
Default                                  : No
Forced                                   : No

Text #24
ID                                       : 28
Format                                   : PGS
Codec ID                                 : S_HDMV/PGS
Codec ID/Info                            : Picture based subtitle format used on BDs/HD-DVDs
Duration                                 : 1 h 34 min
Bit rate                                 : 48.5 kb/s
Frame rate                               : 0.476 FPS
Count of elements                        : 2708
Stream size                              : 32.9 MiB (0%)
Title                                    : Spanish (Latin American)
Language                                 : Spanish (Latin America)
Default                                  : No
Forced                                   : No

Text #25
ID                                       : 29
Format                                   : PGS
Codec ID                                 : S_HDMV/PGS
Codec ID/Info                            : Picture based subtitle format used on BDs/HD-DVDs
Duration                                 : 1 h 32 min
Bit rate                                 : 39.7 kb/s
Frame rate                               : 0.509 FPS
Count of elements                        : 2818
Stream size                              : 26.2 MiB (0%)
Title                                    : Swedish
Language                                 : Swedish
Default                                  : No
Forced                                   : No

Text #26
ID                                       : 30
Format                                   : UTF-8
Codec ID                                 : S_TEXT/UTF8
Codec ID/Info                            : UTF-8 Plain Text
Duration                                 : 1 h 32 min
Bit rate                                 : 177 b/s
Frame rate                               : 0.258 FPS
Count of elements                        : 1429
Stream size                              : 120 KiB (0%)
Title                                    : Thai
Language                                 : Thai
Default                                  : No
Forced                                   : No

Text #27
ID                                       : 31
Format                                   : UTF-8
Codec ID                                 : S_TEXT/UTF8
Codec ID/Info                            : UTF-8 Plain Text
Duration                                 : 1 h 32 min
Bit rate                                 : 77 b/s
Frame rate                               : 0.257 FPS
Count of elements                        : 1423
Stream size                              : 52.6 KiB (0%)
Title                                    : Turkish
Language                                 : Turkish
Default                                  : No
Forced                                   : No

Menu
00:00:00.000                             : en:School Daze
00:05:27.077                             : en:Sandusky, Ohio
00:13:00.863                             : en:A Perfect 10
00:15:24.173                             : en:Cow Tipping
00:18:20.182                             : en:Wonder Boy
00:21:10.895                             : en:The Luckiest Man in the World
00:27:33.569                             : en:Playing with Your Dinghy
00:30:28.618                             : en:The Future of Callahan
00:33:02.772                             : en:On the Road
00:36:40.949                             : en:Whadya Do?
00:39:09.472                             : en:Bad Mommy
00:41:24.941                             : en:Road Kill
00:46:17.525                             : en:Fat Guy in a Little Coat
00:49:14.827                             : en:Oh, Baby
00:52:26.060                             : en:A Pretty New Pet
00:55:43.715                             : en:Guarantee
00:59:09.296                             : en:Spanky
01:02:12.979                             : en:On the Road to Success
01:06:29.027                             : en:Heading Home
01:10:23.803                             : en:Killer Bees
01:12:44.318                             : en:Fly Boys
01:17:34.942                             : en:Zalinsky Auto Parts
01:23:52.486                             : en:I've Got a Plan
01:30:15.244                             : en:The New President
